# xmcd
#
# Track frame offsets:
#  150
#  10972
#  25869
#  45017
#  62471
#  82687
#  98940
#  129398
#  149204
#  173929
#  192322
#  213122
#  229547
#  244891
#
# Disc length: 3494 seconds
#
# Revision: 0
# Processed by: cddbd v1.5.1PL0 Copyright (c) Steve Scherf et al.
# Submitted via: Collectorz.com Music Collector 6.9
#
DISCID=af0da40e
DTITLE=Heaven Davis - Steamy
DYEAR=2005
DGENRE=Blues
TTITLE0=Heartless
TTITLE1=Daydreamin' Bout You
TTITLE2=Dead Letter File
TTITLE3=Sell My Jewelry
TTITLE4=Steamy
TTITLE5=Regrets
TTITLE6=Let Me Lay You Down
TTITLE7=Dance Of Love
TTITLE8=Snake Juice
TTITLE9=Tapping On My Window Pane
TTITLE10=Nobody Knows
TTITLE11=When The Deal Goes Down
TTITLE12=My Baby's Got It
TTITLE13=I'm Somebody's Wife
EXTD=
EXTT0=
EXTT1=
EXTT2=
EXTT3=
EXTT4=
EXTT5=
EXTT6=
EXTT7=
EXTT8=
EXTT9=
EXTT10=
EXTT11=
EXTT12=
EXTT13=
PLAYORDER=
